<svg width="66" height="32" viewBox="0 0 66 32" fill="none" xmlns="http://www.w3.org/2000/svg">
<g id="AKQA-Logo">
<g id="layer1">
<g id="g15946">
<path id="path15948" d="M49.5923 29.1235C49.5034 29.1344 49.3785 29.197 49.2193 29.3097C48.6684 29.6962 48.0192 29.8886 47.2733 29.8886C46.7832 29.8886 46.1481 29.56 45.3646 28.9044L44.5547 28.2159L44.3534 28.0438L43.1127 26.9704C42.7553 26.6887 42.1295 26.249 41.2321 25.6513C41.8455 25.4933 42.4182 25.2914 42.9519 25.0458L29.1 25.0473C29.3044 25.2836 29.5385 25.4025 29.8069 25.4025C29.9489 25.4025 30.1534 25.39 30.4187 25.3665C30.6575 25.3431 31.0445 25.3305 31.5767 25.3305C32.0636 25.3305 32.4053 25.3399 32.6082 25.3603L32.5708 25.4369C32.1541 26.3069 31.9278 27.191 31.8919 28.086C31.8903 28.1314 31.8888 28.1768 31.8919 28.2159H32.2025H31.8919C31.9044 28.5007 32.0136 28.6415 32.2212 28.6415C32.3554 28.6415 32.4537 28.5023 32.5146 28.2159H32.5161C32.5271 28.1549 32.538 28.0892 32.5489 28.0141C32.6472 27.2004 32.9219 26.5072 33.3745 25.9377C33.8271 25.3681 34.3265 25.0817 34.8664 25.0817C35.4891 25.0817 36.4676 25.5402 37.7988 26.4572L40.0383 28.0062C40.0976 28.0485 40.1928 28.1173 40.3239 28.2159C40.7 28.4944 41.3679 28.9983 42.3308 29.7306C43.7775 30.8337 45.0353 31.3845 46.1028 31.3845C46.894 31.3845 47.7165 31.1561 48.5748 30.696C49.43 30.2376 49.8514 29.7979 49.8327 29.3785C49.8233 29.197 49.7453 29.111 49.5923 29.1235Z" fill="black"/>
</g>
<g id="g15950">
<path id="path15952" d="M64.2626 24.6187C63.4183 24.4215 62.8596 24.1524 62.5834 23.8097C62.3087 23.4686 61.9607 22.5954 61.5456 21.1934L61.2506 20.253L59.356 13.9518L55.5013 1.11937C55.403 0.784517 55.286 0.615524 55.144 0.615524C55.0035 0.615524 54.8755 0.789211 54.7616 1.13815L50.3295 13.9518H51.4422C51.4562 13.8345 51.5124 13.6373 51.6139 13.3619L54.2154 5.86054C54.295 5.62896 54.3668 5.51942 54.4292 5.53194C54.554 5.54289 54.6711 5.73379 54.7772 6.10151L54.8833 6.46609L56.9792 13.3259L57.0463 13.6373C57.0775 13.7672 57.0978 13.8736 57.1072 13.9518H58.1294L57.1072 13.9534C57.1119 13.9847 57.1134 14.0128 57.1134 14.0363C57.1134 14.3258 56.8903 14.4697 56.4455 14.4697H52.4129L52.054 14.4525C51.6435 14.4525 51.4391 14.3008 51.4391 14.0019C51.4391 13.9862 51.4391 13.969 51.4422 13.9518H50.3295L47.9027 20.9697L47.5157 22.1166C47.3191 22.6502 47.0694 23.1634 46.7682 23.6563C46.4654 24.1477 46.2251 24.4293 46.0472 24.4982L45.554 24.6906C45.4104 24.747 45.334 24.8659 45.3277 25.0443C45.3262 25.0537 45.3262 25.063 45.3262 25.074C45.3262 25.2931 45.4463 25.4026 45.6867 25.4026C45.7304 25.4026 45.9785 25.365 46.4295 25.2884C46.5715 25.2696 46.7713 25.2602 47.0288 25.2602C47.5859 25.2602 48.0791 25.2711 48.5036 25.2962L49.7817 25.3838C49.9861 25.3963 50.1344 25.4026 50.2327 25.4026C50.4902 25.4026 50.6135 25.304 50.6057 25.1069C50.6041 25.0865 50.601 25.0646 50.5979 25.0443H49.9393H50.5979C50.5683 24.8706 50.4309 24.7517 50.189 24.6906C49.5741 24.5169 49.1606 24.3088 48.9499 24.0647C48.7408 23.8222 48.6362 23.4294 48.6362 22.888C48.6362 22.32 48.8344 21.4547 49.2339 20.2859L50.1188 17.7385C50.3841 16.953 50.5979 16.4898 50.7586 16.3521C50.9194 16.2129 51.3283 16.1425 51.9868 16.1425H56.8185C57.3179 16.1425 57.6191 16.1925 57.7268 16.2911C57.8344 16.3897 57.9811 16.7574 58.1684 17.3942L58.8379 19.6866C59.3841 21.5173 59.6572 22.7378 59.6572 23.3512C59.6572 24.0225 59.4341 24.4168 58.9862 24.5326L58.571 24.6531C58.3479 24.7141 58.2355 24.8393 58.2355 25.0286V25.0443C58.2418 25.2837 58.3572 25.4026 58.582 25.4026C58.6709 25.4026 58.8083 25.3776 58.9955 25.3306C59.3061 25.2602 60.0802 25.2242 61.3146 25.2242C62.4975 25.2242 63.32 25.2492 63.7819 25.3009C64.0394 25.3197 64.2095 25.3306 64.2891 25.3306C64.5279 25.3306 64.6512 25.2367 64.6621 25.0458V25.0427C64.6715 24.8283 64.5388 24.6875 64.2626 24.6187Z" fill="black"/>
</g>
<g id="g15954">
<path id="path15956" d="M40.442 24.7607C38.5302 24.7607 36.8042 23.8516 35.2592 22.0318C33.5285 19.9788 32.5235 17.2859 32.2457 13.9514C32.1926 13.3146 32.1661 12.6527 32.1661 11.9674C32.1661 9.02251 32.7732 6.63315 33.9858 4.79615C35.2015 2.95914 36.7808 2.04064 38.7269 2.04064C41.0303 2.04064 42.9873 3.30025 44.5995 5.82105C46.0508 8.09306 46.8483 10.8016 46.9919 13.9514C47.0075 14.2988 47.0168 14.6509 47.0168 15.0092C47.0168 17.9181 46.4113 20.2699 45.2018 22.0662C43.9908 23.8625 42.4052 24.7607 40.442 24.7607ZM47.716 19.7379C48.4526 17.9775 48.8537 16.0498 48.9208 13.953C48.9286 13.7433 48.9301 13.5321 48.9301 13.3209C48.9301 9.67971 48.0562 6.71765 46.3083 4.43469C44.5604 2.15017 42.2976 1.00791 39.5212 1.00791C36.3891 1.00791 33.9623 2.37549 32.2348 5.11223C30.785 7.42178 30.0608 10.2227 30.0608 13.5149C30.0608 13.662 30.0624 13.8075 30.0655 13.9514C30.1545 17.8836 31.4716 21.132 34.0138 23.692C33.6518 23.8844 33.3194 24.2068 33.0135 24.6558L32.5578 24.5322C31.687 24.3006 30.8817 23.6794 30.142 22.6686L23.7482 13.9514H18.7386V20.6517C18.7386 22.11 18.6278 23.1474 18.4093 23.7639C18.3609 23.8985 18.3048 24.019 18.2408 24.1285C18.0863 24.0299 17.963 23.9251 17.8694 23.8109C17.5931 23.4682 17.2482 22.5951 16.83 21.1931L16.5366 20.2527L14.6436 13.9514L10.7873 1.12057C10.6906 0.784151 10.5704 0.61516 10.4315 0.61516C10.291 0.61516 10.1631 0.790409 10.0476 1.13778L5.61702 13.9514H6.72817C6.74222 13.8357 6.7984 13.6385 6.89984 13.3615L9.50293 5.86017C9.58252 5.62859 9.65275 5.51906 9.71674 5.53158C9.84002 5.54253 9.95551 5.73343 10.0616 6.10114L10.1709 6.46729L12.2652 13.3256L12.3323 13.6385C12.3635 13.7684 12.3838 13.8732 12.3932 13.9514H13.4169L12.3932 13.953C12.3963 13.9843 12.3994 14.0125 12.3994 14.0359C12.3994 14.3254 12.1778 14.4694 11.7315 14.4694H7.70043L7.33993 14.4522C6.92949 14.4522 6.72505 14.3004 6.72505 14.0015C6.72505 13.9859 6.72661 13.9702 6.72817 13.9514H5.61702L3.18871 20.9693L2.80168 22.1178C2.60505 22.6498 2.35691 23.1631 2.05259 23.656C1.75139 24.1473 1.51106 24.429 1.33315 24.4978L0.839997 24.6903C0.696421 24.7466 0.619951 24.8655 0.613708 25.0455V25.0736C0.613708 25.2927 0.732314 25.4022 0.972648 25.4022C1.01634 25.4022 1.26448 25.3647 1.71706 25.288C1.85751 25.2692 2.05727 25.2598 2.31477 25.2598C2.87347 25.2598 3.36506 25.2708 3.79111 25.2958L5.06612 25.3834C5.27056 25.396 5.42194 25.4022 5.5187 25.4022C5.7762 25.4022 5.89949 25.3036 5.89013 25.1065C5.89013 25.0861 5.88701 25.0642 5.88388 25.0455H5.22687H5.88388C5.85267 24.8702 5.7169 24.7513 5.47656 24.6903C4.85856 24.5166 4.44812 24.3085 4.23744 24.0659C4.02676 23.8218 3.9222 23.4291 3.9222 22.8877C3.9222 22.3197 4.12196 21.4544 4.51991 20.2871L5.40478 17.7381C5.67164 16.9526 5.88388 16.4895 6.04462 16.3518C6.20537 16.2125 6.61425 16.1421 7.27282 16.1421H12.106C12.6039 16.1421 12.9051 16.1922 13.0127 16.2907C13.1189 16.3893 13.2671 16.757 13.4528 17.3939L14.1255 19.6862C14.6701 21.517 14.9432 22.7375 14.9432 23.3524C14.9432 24.0221 14.72 24.4164 14.2722 24.5322L13.857 24.6543C13.6323 24.7137 13.5215 24.8389 13.5215 25.0283V25.0455C13.5277 25.2833 13.6417 25.4022 13.868 25.4022C13.9569 25.4022 14.0942 25.3788 14.2815 25.3302C14.5936 25.2598 15.3661 25.2238 16.6021 25.2238C17.242 25.2238 17.8241 25.216 18.2985 25.2176C18.6465 25.2332 22.1719 25.3788 22.4529 25.4194C22.8087 25.4648 23.0506 25.4945 23.177 25.5102C23.3986 25.5196 23.5063 25.4085 23.4985 25.1706C23.4953 25.1253 23.486 25.083 23.4704 25.0455C23.4173 24.9234 23.294 24.842 23.0974 24.7967C22.1111 24.5886 21.479 24.2694 21.2028 23.8406C20.9281 23.4119 20.7893 22.5309 20.7893 21.1978V14.8324C20.7893 14.5664 20.872 14.4318 21.0358 14.4318C21.1451 14.4318 21.2543 14.496 21.3636 14.6243L21.6304 15.0076L28.7952 24.623L29.023 24.9485C29.0464 24.9829 29.073 25.0157 29.0995 25.0455H42.9515C43.4696 24.8061 43.9502 24.5291 44.3935 24.2068C45.7996 23.1631 46.9076 21.6734 47.716 19.7379Z" fill="black"/>
</g>
<g id="g15958">
<path id="path15960" d="M22.8685 12.4584C22.8778 12.3176 22.9793 12.1329 23.1744 11.8998L27.736 6.5077C30.0083 3.84451 31.5455 2.37991 32.346 2.11234C32.783 1.97621 32.9968 1.8166 32.9875 1.63353C32.9703 1.40664 32.8408 1.29242 32.5989 1.29242C32.5271 1.29242 32.3913 1.31745 32.1853 1.36439C32.0058 1.40038 31.636 1.41759 31.0742 1.41759L30.0707 1.43481L28.8394 1.38787C28.3759 1.38787 27.9576 1.36752 27.5831 1.32528C27.4223 1.30337 27.3022 1.29242 27.221 1.29242C26.9448 1.29242 26.8059 1.40977 26.8059 1.64292C26.8059 1.85416 27.0088 1.99811 27.413 2.07635C28.0544 2.22813 28.3743 2.57081 28.3743 3.10282C28.3743 3.71933 27.9342 4.53612 27.054 5.55947L21.3235 12.2628L21.1237 12.4725L20.9099 12.6634C20.8288 12.6634 20.7897 12.5413 20.7897 12.2957V5.47027C20.7897 4.27951 20.8647 3.48462 21.0129 3.08248C21.1596 2.67878 21.517 2.32045 22.0804 2.00437C22.2957 1.89484 22.4034 1.76184 22.4034 1.60693C22.4034 1.3863 22.2973 1.2799 22.0819 1.29242C22.0101 1.29242 21.7948 1.32371 21.4374 1.38161C21.2423 1.39725 21.0098 1.40508 20.7414 1.40508L19.7363 1.44889L19.2401 1.47236C18.2662 1.47236 17.5515 1.43168 17.0942 1.35188C16.907 1.31276 16.7462 1.29242 16.612 1.29242C16.3717 1.29242 16.2499 1.41134 16.2499 1.64918C16.2499 1.81817 16.3654 1.93709 16.598 2.00437L17.2534 2.18119C17.8324 2.34236 18.2257 2.67252 18.4301 3.16698C18.6361 3.66456 18.7391 4.53613 18.7391 5.78322V13.9512H23.7471L23.1884 13.1907C22.9668 12.8762 22.8591 12.6321 22.8685 12.4584Z" fill="black"/>
</g>
</g>
</g>
</svg>
